<svg xmlns="http://www.w3.org/2000/svg" viewBox="0 0 200 164.11">
  <ellipse style="fill:#7681d3;" cx="56.29" cy="114.91" rx="102.72" ry="78.62"  transform="matrix(.91883 -.39466 .42018 .90744 0 0)"/>
  <path style="fill:#bc004b;opacity: 0.7;" d="M141.8 91.8 54.75 46.44a28.85 28.85 0 0 0-26.56 51.22L115.24 143a28.85 28.85 0 0 0 26.56-51.2z" />
  <path style="fill:#1226AA;opacity: 0.7;" d="M148.42 29.24c-1.5.97-7.79 6.15-14.16 11.38l-30 24.6a41.69 41.69 0 0 1-26.46 9.45H52.96c-8.24-.01-22.1-.29-29.2 3.73a29.06 29.06 0 0 0-10.9 10.9c-4.03 7.08-4.04 21.44-.02 28.53a29.06 29.06 0 0 0 10.9 10.9c7.08 4.03 20.94 3.78 29.18 3.78l45.55.03a41.69 41.69 0 0 0 26.46-9.46l46.01-37.73c6.37-5.23 17.26-13.8 20.19-21.41a29.06 29.06 0 0 0 1.52-15.34c-1.38-8.03-10.5-19.13-18.1-22.06-6.31-2.44-19.28-1.73-26.13 2.7z" />
  <path fill="#fff" d="M158.3 40c-17.42 4.44-37.46 6.43-56.24 6.57h-4.12c-18.78-.14-38.82-2.13-56.25-6.57a2.04 2.04 0 0 0-2.5 1.49l-2.54 10.18a2.1 2.1 0 0 0 1.5 2.53c12.07 3.09 25.63 5.2 38.5 6.39a2.3 2.3 0 0 1 2.07 2.24v88.1a2.06 2.06 0 0 0 2.06 2.07h10.06a2.06 2.06 0 0 0 2.07-2.06V112.5a2.06 2.06 0 0 1 2.06-2.07h10.06a2.06 2.06 0 0 1 2.06 2.07v38.44a2.06 2.06 0 0 0 2.07 2.06h10.06a2.06 2.06 0 0 0 2.06-2.06v-88.1a2.3 2.3 0 0 1 2.06-2.25c12.88-1.2 26.44-3.3 38.52-6.4a2.09 2.09 0 0 0 1.5-2.52L160.8 41.5a2.04 2.04 0 0 0-2.5-1.49zm-56.24-.67a14.26 14.26 0 0 0 11.98-11.98c.17-1.13.17-2.99 0-4.11a14.26 14.26 0 0 0-11.98-11.99 17.11 17.11 0 0 0-4.12 0 14.26 14.26 0 0 0-11.98 11.99 17.11 17.11 0 0 0 0 4.11 14.26 14.26 0 0 0 11.98 11.98c1.13.17 2.99.17 4.12 0z" />
</svg>